# xmcd CD database file
#
# Track frame offsets:
#	150
#	16525
#	35820
#
# Disc length: 694 seconds
#
# Revision: 0
# Processed by: cddbd v1.5PL3 Copyright (c) Steve Scherf et al.
# Submitted via: CDex 1.50
#
DISCID=1802b403
DTITLE=瀬能あづさ - もう泣かないで
DYEAR=1991
DGENRE=JPop
TTITLE0=もう泣かないで
TTITLE1=悲しみを運んで
TTITLE2=もう泣かないで (ｶﾗｵｹ)
EXTD=YEAR: 1991/09/04
EXTT0=
EXTT1=
EXTT2=
PLAYORDER=
